<?xml version="1.0" encoding="utf-8"?>
<!-- Generator: Adobe Illustrator 15.0.0, SVG Export Plug-In . SVG Version: 6.00 Build 0)  -->
<!DOCTYPE svg PUBLIC "-//W3C//DTD SVG 1.1//EN" "http://www.w3.org/Graphics/SVG/1.1/DTD/svg11.dtd">
<svg version="1.1" id="Capa_1" xmlns="http://www.w3.org/2000/svg" xmlns:xlink="http://www.w3.org/1999/xlink" x="0px" y="0px"
	 width="381.558px" height="91.543px" viewBox="0 0 381.558 91.543" enable-background="new 0 0 381.558 91.543"
	 xml:space="preserve">
<polygon fill="#0064AB" points="52.796,22.678 66.927,22.678 39.785,70.038 25.863,70.038 "/>
<path fill="#0064AB" d="M76.973,12.296l-5.895,10.285c5.601,6.109,9.022,14.249,9.022,23.191c0,18.959-15.37,34.327-34.329,34.327
	S11.443,64.731,11.443,45.772c0-18.959,15.369-34.328,34.329-34.328c3.569,0,7.011,0.545,10.247,1.557l5.754-10.12
	C56.792,1.022,51.402,0,45.771,0C20.492,0,0,20.493,0,45.772C0,71.05,20.492,91.543,45.771,91.543
	c25.28,0,45.772-20.493,45.772-45.771C91.543,32.554,85.934,20.651,76.973,12.296z"/>
<rect x="124.222" y="30.748" fill="#009BDB" width="9.536" height="45.772"/>
<rect x="124.222" y="17.423" fill="#009BDB" width="9.536" height="9.536"/>
<path fill="#009BDB" d="M223.287,17.423v17.726c-3.748-2.694-8.332-4.298-13.301-4.298c-12.61,0-22.834,10.224-22.834,22.834
	c0,12.611,10.224,22.835,22.834,22.835c12.611,0,22.836-10.224,22.836-22.833l0,0V17.423H223.287z M209.986,66.966
	c-7.333,0-13.279-5.946-13.279-13.28c0-7.334,5.946-13.281,13.279-13.281c7.336,0,13.281,5.947,13.281,13.281
	C223.267,61.02,217.322,66.966,209.986,66.966z"/>
<path fill="#009BDB" d="M272.883,30.748v4.403c-3.748-2.694-8.333-4.299-13.301-4.299c-12.611,0-22.833,10.223-22.833,22.834
	c0,12.611,10.222,22.834,22.833,22.834c4.968,0,9.553-1.604,13.301-4.298v4.297h9.535V30.748H272.883z M259.583,66.966
	c-7.334,0-13.28-5.944-13.28-13.28c0-7.333,5.946-13.28,13.28-13.28c7.335,0,13.281,5.947,13.281,13.28
	C272.864,61.022,266.917,66.966,259.583,66.966z"/>
<path fill="#009BDB" d="M286.312,17.423v36.263l0,0c0,12.61,10.225,22.833,22.836,22.833c12.61,0,22.834-10.224,22.834-22.835
	c0-12.61-10.224-22.834-22.834-22.834c-4.969,0-9.553,1.604-13.3,4.298V17.423H286.312z M295.867,53.687
	c0-7.334,5.945-13.281,13.281-13.281c7.333,0,13.279,5.947,13.279,13.281c0,7.333-5.946,13.28-13.279,13.28
	C301.812,66.966,295.867,61.02,295.867,53.687z"/>
<path fill="#009BDB" d="M372.023,30.748v4.403c-3.747-2.694-8.332-4.299-13.301-4.299c-12.611,0-22.833,10.223-22.833,22.834
	c0,12.611,10.222,22.834,22.833,22.834c4.969,0,9.554-1.604,13.301-4.298v4.297h9.535V30.748H372.023z M358.722,66.966
	c-7.334,0-13.28-5.944-13.28-13.28c0-7.333,5.946-13.28,13.28-13.28c7.335,0,13.281,5.947,13.281,13.28
	C372.003,61.022,366.057,66.966,358.722,66.966z"/>
<path fill="#009BDB" d="M160.422,30.851c-12.593,0-22.803,10.196-22.832,22.783h-0.003V76.52h9.536V53.687h0.019l0,0
	c0-7.334,5.947-13.281,13.28-13.281c7.335,0,13.281,5.947,13.281,13.281l0,0h0.019v22.885h9.536V53.687c0,0,0,0,0-0.001
	C183.258,41.075,173.034,30.851,160.422,30.851z"/>
</svg>
